# AST/ASF file generated using VICON BodyLanguage
# -----------------------------------------------
:version 1.10
:name VICON
:units
  mass 1.0
  length 0.45
  angle deg
:documentation
   .ast/.asf automatically generated from VICON data using
   VICON BodyBuilder and BodyLanguage model FoxedUp or BRILLIANT.MOD
:root
   order TX TY TZ RX RY RZ
   axis XYZ
   position 0 0 0  
   orientation 0 0 0 
:bonedata
  begin
     id 1 
     name lhipjoint
     direction 0.64773 -0.699417 0.302095 
     length 2.48597 
     axis 0 0 0  XYZ
  end
  begin
     id 2 
     name lfemur
     direction 0.34202 -0.939693 0  
     length 6.71947  
     axis 0 0 20  XYZ
    dof rx ry rz
    limits (-160.0 20.0)
           (-70.0 70.0)
           (-60.0 70.0)
  end
  begin
     id 3 
     name ltibia
     direction 0.34202 -0.939693 0   
     length 8.08777   
     axis 0 0 20   XYZ
    dof rx
    limits (-10.0 170.0)
  end
  begin
     id 4 
     name lfoot
     direction 0.0808503 -0.222134 0.971658   
     length 2.08264   
     axis -90 7.62852e-016 20   XYZ
    dof rx rz
    limits (-45.0 90.0)
           (-70.0 20.0)
  end
  begin
     id 5 
     name ltoes
     direction 1.53502e-011 -4.22007e-011 1   
     length 1.04662   
     axis -90 7.62852e-016 20   XYZ
    dof rx
    limits (-90.0 20.0)
  end
  begin
     id 6 
     name rhipjoint
     direction -0.610924 -0.726792 0.313919   
     length 2.39233  
     axis 0 0 0  XYZ 
  end
  begin
     id 7 
     name rfemur
     direction -0.34202 -0.939693 0   
     length 6.96955   
     axis 0 0 -20   XYZ
    dof rx ry rz
    limits (-160.0 20.0)
           (-70.0 70.0)
           (-70.0 60.0)
  end
  begin
     id 8 
     name rtibia
     direction -0.34202 -0.939693 0   
     length 8.19584   
     axis 0 0 -20   XYZ
    dof rx
    limits (-10.0 170.0)
 end
 begin
     id 9 
     name rfoot
     direction -0.077777 -0.213691 0.9738   
     length 2.07539  
     axis -90 -7.62852e-016 -20   XYZ
    dof rx rz
    limits (-45.0 90.0)
           (-20.0 70.0)
  end
  begin
     id 10 
     name rtoes
     direction -1.53558e-011 -4.22006e-011 1   
     length 1.04381   
     axis -90 -7.62852e-016 -20   XYZ
    dof rx
    limits (-90.0 20.0)
  end
  begin
     id 11 
     name lowerback
     direction -0.00971646 0.996074 0.0879841   
     length 1.67643   
     axis 0 0 0   XYZ
    dof rx ry rz
    limits (-20.0 45.0)
           (-30.0 30.0)
           (-30.0 30.0)
  end
  begin
     id 12 
     name upperback
     direction 0.0127391 0.991676 0.128127   
     length 1.63741   
     axis 0 0 0   XYZ
    dof rx ry rz
    limits (-20.0 45.0)
           (-30.0 30.0)
           (-30.0 30.0)
  end
  begin
     id 13 
     name thorax
     direction 0.0167583 0.996049 0.0872067   
     length 1.65931   
     axis 0 0 0   XYZ
    dof rx ry rz
    limits (-20.0 45.0)
           (-30.0 30.0)
           (-30.0 30.0)
  end
  begin
     id 14 
     name lowerneck
     direction -0.0317829 0.998312 0.0486079   
     length 1.79021   
     axis 0 0 0   XYZ
    dof rx ry rz
    limits (-20.0 45.0)
           (-30.0 30.0)
           (-30.0 30.0)
  end
  begin
     id 15 
     name upperneck
     direction 0.0896851 0.972452 -0.215159   
     length 1.78797   
     axis 0 0 0   XYZ
    dof rx ry rz
    limits (-20.0 45.0)
           (-30.0 30.0)
           (-30.0 30.0)
  end
  begin
     id 16
     name head
     direction 0.0310949 0.996503 -0.0775582  
     length 1.81549  
     axis 0 0 0   XYZ
    dof rx ry rz
    limits (-20.0 45.0)
           (-30.0 30.0)
           (-30.0 30.0)
  end
  begin
     id 17 
     name lclavicle
     direction 0.853638 0.502051 -0.138733  
     length 3.31627  
     axis 0 0 0   XYZ
    dof ry rz
    limits (-20.0 10.0)
           (0.0 20.0)
  end
  begin
     id 18 
     name lhumerus
     direction 1 -4.48962e-011 -1.41788e-018   
     length 5.54893   
     axis 180 -30 -90   XYZ
    dof rx ry rz
    limits (-60.0 90.0)
           (-90.0 90.0)
           (-90.0 90.0)
  end
  begin
     id 19
     name lradius
     direction 1 -4.48962e-011 -4.95754e-027   
     length 3.02898   
     axis 180 -30 -90   XYZ
    dof rx
    limits (-10.0 170.0)
  end
  begin
     id 20
     name lwrist
     direction 1 -4.48952e-011 -1.03764e-026   
     length 1.51449   
     axis 9.09556e-015 90 90   XYZ
    dof ry
    limits (-180.0 0.0)
 end
  begin
     id 21 
     name lhand
     direction 1 -4.4902e-011 -2.07528e-026   
     length 0.640951   
     axis 1.3242e-014 90 90   XYZ
    dof rx rz
    limits (-90.0 90.0)
           (-45.0 45.0)
  end
  begin
     id 22 
     name lfingers
     direction 1 -4.49014e-011 -4.15056e-026   
     length 0.516751   
     axis 2.64841e-014 90 90   XYZ
    dof rx
    limits (0.0 90.0)
  end
  begin
     id 23
     name lthumb
     direction 0.707107 -6.35008e-011 0.707107   
     length 0.741954   
     axis -90 45 2.85299e-015   XYZ
    dof rx rz
    limits (-45.0 45.0)
           (-45.0 45.0)
  end
  begin
     id 24 
     name rclavicle
     direction -0.888531 0.455324 -0.0565039   
     length 3.20126  
     axis 0 0 0   XYZ 
    dof ry rz
    limits (-10.0 20.0)
           (-20.0 0.0)
  end
  begin
     id 25 
     name rhumerus
     direction -1 -4.48946e-011 -8.98298e-028  
     length 5.3519   
     axis 180 30 90   XYZ
    dof rx ry rz
    limits (-90.0 60.0)
           (-90.0 90.0)
           (-90.0 90.0)
  end
  begin
     id 26 
     name rradius
     direction -1 -4.4899e-011 -3.18779e-027   
     length 3.02531   
     axis 180 30 90   XYZ
    dof rx
    limits (-10.0 170.0)
  end
  begin
     id 27 
     name rwrist
     direction -1 -4.4897e-011 -1.03764e-026   
     length 1.51266   
     axis 9.09556e-015 -90 -90   XYZ
    dof ry
    limits (-180.0 0.0)
  end
  begin
     id 28
     name rhand
     direction -1 -4.48941e-011 -2.07528e-026   
     length 0.78389   
     axis 1.3242e-014 -90 -90   XYZ
    dof rx rz
    limits (-90.0 90.0)
           (-45.0 45.0)
  end
  begin
     id 29
     name rfingers
     direction -1 -4.49012e-011 -4.15056e-026   
     length 0.631992   
     axis 2.64841e-014 -90 -90   XYZ
    dof rx
    limits (0.0 90.0)
  end
  begin
     id 30
     name rthumb
     direction -0.707107 -6.3496e-011 0.707107   
     length 0.907418   
     axis -90 -45 -2.85299e-015   XYZ
    dof rx rz
    limits (-45.0 45.0)
           (-45.0 45.0)
  end
:hierarchy
  begin
    root lhipjoint rhipjoint lowerback
    lhipjoint lfemur
    lfemur ltibia
    ltibia lfoot
    lfoot ltoes
    rhipjoint rfemur
    rfemur rtibia
    rtibia rfoot
    rfoot rtoes
    lowerback upperback
    upperback thorax
    thorax lowerneck lclavicle rclavicle
    lowerneck upperneck
    upperneck head
    lclavicle lhumerus
    lhumerus lradius
    lradius lwrist
    lwrist lhand lthumb
    lhand lfingers
    rclavicle rhumerus
    rhumerus rradius
    rradius rwrist
    rwrist rhand rthumb
    rhand rfingers
  end

#!OML:ASF E:\Style3\Style3.ASF
:FULLY-SPECIFIED
:DEGREES
1638
root -0.319266 17.5715 -1.16649 -131.573 54.4059 -177.438
lowerback 25.3514 2.74437 -5.00266
upperback 4.43789 2.5002 -2.02515
thorax -9.25741 1.48714 -0.228597
lowerneck -15.267 7.77022 3.5886
upperneck -0.37502 10.9795 -16.1328
head 3.53613 5.02887 -4.62986
rclavicle -5.87409e-014 -9.56651e-014
rhumerus -1.84469 29.1859 -58.5165
rradius 146.577
rwrist -57.1465
rhand 34.7249 18.5003
rfingers 7.12502
rthumb 57.8973 2.68708
lclavicle -5.87409e-014 -9.56651e-014
lhumerus -9.02152 -37.3503 71.0933
lradius 144.939
lwrist 56.4378
lhand 30.7496 21.1658
lfingers 7.12502
lthumb 54.3796 39.7439
rfemur -43.8819 -1.94767 17.3859
rtibia 15.494
rfoot -20.2891 -37.7296
rtoes 8.56352
lfemur -66.0272 -20.3599 6.01563
ltibia 23.6253
lfoot -5.86371 3.36833
ltoes -22.5948
1639
root -0.322477 17.5702 -1.16378 -131.584 54.3317 -177.513
lowerback 25.367 2.70131 -4.99641
upperback 4.42204 2.44296 -2.04191
thorax -9.28021 1.4604 -0.233189
lowerneck -15.2374 7.59105 3.36301
upperneck -0.899795 10.6626 -15.3475
head 3.27192 4.93445 -4.39712
rclavicle -5.6753e-014 8.09923e-014
rhumerus -2.03523 29.102 -58.6274
rradius 146.651
rwrist -57.1937
rhand 34.6641 18.6147
rfingers 7.12502
rthumb 57.8442 2.75433
lclavicle -5.6753e-014 8.09923e-014
lhumerus -9.12599 -37.3215 71.1064
lradius 144.964
lwrist 56.4691
lhand 30.5784 21.1233
lfingers 7.12502
lthumb 54.2262 39.8072
rfemur -43.9128 -1.90422 17.3184
rtibia 15.4544
rfoot -20.4216 -37.8244
rtoes 8.6924
lfemur -66.1224 -20.4129 6.09301
ltibia 23.5912
lfoot -5.84955 3.38832
ltoes -22.7858
1640
root -0.324878 17.5686 -1.16022 -131.67 54.2869 -177.664
lowerback 25.3867 2.64532 -5.06462
upperback 4.40653 2.34784 -2.08789
thorax -9.30459 1.4185 -0.215626
lowerneck -15.0691 7.44748 3.16069
upperneck -1.64378 10.3773 -14.5266
head 2.92535 4.87386 -4.1625
rclavicle 6.69004e-014 2.73193e-014
rhumerus -2.26474 29.056 -58.8368
rradius 146.709
rwrist -57.2457
rhand 34.6041 18.7337
rfingers 7.12502
rthumb 57.7917 2.82689
lclavicle 6.69004e-014 2.73193e-014
lhumerus -9.41603 -37.1736 71.0438
lradius 145.132
lwrist 56.6001
lhand 30.5715 21.1358
lfingers 7.12502
lthumb 54.2201 39.824
rfemur -43.9133 -1.8086 17.145
rtibia 15.3933
rfoot -20.005 -38.1159
rtoes 7.77955
lfemur -66.2271 -20.5017 6.12858
ltibia 23.5733
lfoot -5.8017 3.44274
ltoes -23.0324
1641
root -0.314954 17.5738 -1.1654 -131.289 54.5616 -177.116
lowerback 25.2469 2.80922 -5.29302
upperback 4.45672 2.5099 -2.1085
thorax -9.18889 1.49924 -0.153984
lowerneck -14.8168 7.35551 3.1626
upperneck -2.49431 10.1526 -14.0049
head 2.57394 4.84161 -4.04942
rclavicle -2.38666e-014 -9.56154e-014
rhumerus -2.38918 28.9521 -58.9274
rradius 146.707
rwrist -57.3252
rhand 34.656 18.6833
rfingers 7.12502
rthumb 57.8371 2.81663
lclavicle -2.38666e-014 -9.56154e-014
lhumerus -9.83933 -37.0786 70.987
lradius 145.393
lwrist 56.6378
lhand 30.6446 21.0297
lfingers 7.12502
lthumb 54.2855 39.6728
rfemur -43.8097 -1.71594 17.4298
rtibia 15.2756
rfoot -18.9605 -37.9269
rtoes 6.25454
lfemur -65.9238 -20.2723 6.1869
ltibia 23.6015
lfoot -5.88416 3.64318
ltoes -23.2049
1642
root -0.318899 17.5692 -1.16364 -131.26 54.4368 -177.215
lowerback 25.2221 2.72464 -5.21761
upperback 4.42003 2.41731 -2.11712
thorax -9.21081 1.45334 -0.176072
lowerneck -14.6482 7.23063 3.08157
upperneck -3.24551 9.91942 -13.4414
head 2.2601 4.7954 -3.90782
rclavicle -2.59166e-014 3.45388e-015
rhumerus -2.4624 28.7275 -58.9232
rradius 146.679
rwrist -57.5564
rhand 34.9176 18.3842
rfingers 7.12502
rthumb 58.0654 2.72155
lclavicle -2.59166e-014 3.45388e-015
lhumerus -9.97823 -37.0179 70.9491
lradius 145.415
lwrist 56.6237
lhand 30.5945 21.0225
lfingers 7.12502
lthumb 54.2407 39.6965
rfemur -43.8348 -1.72963 17.3999
rtibia 15.1298
rfoot -19.3651 -37.979
rtoes 7.01832
lfemur -66.1604 -20.3549 6.36848
ltibia 23.6339
lfoot -5.88453 3.6789
ltoes -23.119
1643
root -0.321207 17.5678 -1.16209 -131.212 54.3854 -177.25
lowerback 25.1718 2.67955 -5.21518
upperback 4.41587 2.362 -2.12834
thorax -9.18672 1.42706 -0.169584
lowerneck -14.2229 7.03473 2.81385
upperneck -4.47909 9.59554 -12.6133
head 1.73148 4.74706 -3.68344
rclavicle -4.86525e-014 7.57245e-014
rhumerus -2.52822 28.5012 -58.9545
rradius 146.669
rwrist -57.7335
rhand 35.1916 18.0319
rfingers 7.12502
rthumb 58.304 2.58646
lclavicle -4.86525e-014 7.57245e-014
lhumerus -9.96855 -36.9524 70.9345
lradius 145.283
lwrist 56.5561
lhand 30.5937 20.9794
lfingers 7.12502
lthumb 54.2399 39.6539
rfemur -43.799 -1.71438 17.3874
rtibia 14.9396
rfoot -19.7503 -37.9736
rtoes 7.69404
lfemur -66.3097 -20.355 6.43067
ltibia 23.6889
lfoot -5.9009 3.69549
ltoes -23.1001
1644
root -0.320329 17.5685 -1.161 -131.078 54.3596 -177.14
lowerback 25.1343 2.68036 -5.23022
upperback 4.4366 2.36506 -2.1161
thorax -9.14513 1.42882 -0.146006
lowerneck -13.6758 6.82121 2.62309
upperneck -5.98362 9.26959 -11.6131
head 1.18786 4.71531 -3.75149
rclavicle 4.34841e-014 -4.72362e-014
rhumerus -2.56052 28.3962 -58.9423
rradius 146.624
rwrist -57.7173
rhand 35.3584 17.8398
rfingers 7.12502
rthumb 58.4489 2.5282
lclavicle 4.34841e-014 -4.72362e-014
lhumerus -9.95833 -36.9052 70.937
lradius 145.214
lwrist 56.3832
lhand 30.5862 20.9519
lfingers 7.12502
lthumb 54.2332 39.631
rfemur -43.8432 -1.64894 17.4406
rtibia 14.9445
rfoot -19.8231 -37.9821
rtoes 7.69116
lfemur -66.3394 -20.2954 6.52034
ltibia 23.6735
lfoot -5.93675 3.69298
ltoes -22.8646
1645
root -0.321991 17.5668 -1.16023 -131.01 54.3167 -177.109
lowerback 25.1216 2.64997 -5.21648
upperback 4.44439 2.33205 -2.11106
thorax -9.12822 1.41309 -0.136546
lowerneck -13.1946 6.61576 2.51643
upperneck -7.36166 8.96435 -11.0577
head 0.582702 4.66655 -3.60091
rclavicle 2.08724e-014 -6.4779e-014
rhumerus -2.62496 28.4832 -58.9419
rradius 146.57
rwrist -57.6176
rhand 35.4531 17.7687
rfingers 7.12502
rthumb 58.5312 2.53377
lclavicle 2.08724e-014 -6.4779e-014
lhumerus -10.0166 -36.8372 71.0025
lradius 145.185
lwrist 56.1928
lhand 30.55 21.1499
lfingers 7.12502
lthumb 54.2007 39.8513
rfemur -43.9091 -1.60247 17.4281
rtibia 14.9728
rfoot -19.5956 -38.0798
rtoes 7.32358
lfemur -66.4072 -20.3056 6.64135
ltibia 23.6514
lfoot -5.93009 3.69748
ltoes -22.6611
1646
root -0.325686 17.5623 -1.15878 -131.034 54.2966 -177.223
lowerback 25.086 2.60871 -5.22052
upperback 4.45479 2.28038 -2.1331
thorax -9.09514 1.38898 -0.139902
lowerneck -12.5895 6.45517 2.42165
upperneck -8.81336 8.73415 -10.5657
head -0.0477951 4.65685 -3.48325
rclavicle -1.86858e-014 -5.27276e-014
rhumerus -2.67996 28.596 -58.9534
rradius 146.529
rwrist -57.5223
rhand 35.485 17.6652
rfingers 7.12502
rthumb 58.5589 2.45614
lclavicle -1.86858e-014 -5.27276e-014
lhumerus -9.95464 -36.8138 70.9478
lradius 145.151
lwrist 56.039
lhand 30.5122 21.2207
lfingers 7.12502
lthumb 54.1668 39.9453
rfemur -44.0236 -1.58172 17.3073
rtibia 15.0331
rfoot -19.5332 -38.15
rtoes 7.4858
lfemur -66.5197 -20.3303 6.65222
ltibia 23.6155
lfoot -5.85595 3.68027
ltoes -22.9112
1647
root -0.328024 17.5595 -1.15732 -131.042 54.2551 -177.281
lowerback 25.0968 2.60607 -5.16783
upperback 4.45951 2.29106 -2.12547
thorax -9.09448 1.39254 -0.165158
lowerneck -12.0739 6.23739 2.06522
upperneck -10.1246 8.48884 -9.89872
head -0.632715 4.63378 -3.26188
rclavicle 9.10434e-014 6.87795e-014
rhumerus -2.76105 28.6297 -58.8826
rradius 146.546
rwrist -57.4319
rhand 35.4196 17.4921
rfingers 7.12502
rthumb 58.5021 2.22998
lclavicle 9.10434e-014 6.87795e-014
lhumerus -9.92817 -36.9088 71.0109
lradius 145.187
lwrist 55.9542
lhand 30.3393 21.4082
lfingers 7.12502
lthumb 54.0118 40.2383
rfemur -44.1055 -1.61835 17.3064
rtibia 15.1176
rfoot -20.0717 -38.0362
rtoes 8.21446
lfemur -66.5929 -20.3412 6.66058
ltibia 23.5876
lfoot -5.79166 3.66617
ltoes -23.2448
1648
root -0.330637 17.5591 -1.15591 -131.072 54.2225 -177.322
lowerback 25.1769 2.60496 -5.11279
upperback 4.47002 2.30143 -2.11597
thorax -9.12306 1.3967 -0.192473
lowerneck -11.7275 5.99502 1.60466
upperneck -11.317 8.25187 -9.13873
head -1.15298 4.60677 -2.98947
rclavicle -4.13472e-014 1.95679e-014
rhumerus -2.84149 28.6672 -58.8672
rradius 146.554
rwrist -57.3589
rhand 35.3834 17.5544
rfingers 7.12502
rthumb 58.4707 2.26298
lclavicle -4.13472e-014 1.95679e-014
lhumerus -9.93945 -36.9211 71.08
lradius 145.261
lwrist 55.9292
lhand 30.5661 21.5587
lfingers 7.12502
lthumb 54.2151 40.2503
rfemur -44.1552 -1.62488 17.2974
rtibia 15.2079
rfoot -20.6018 -37.948
rtoes 9.0025
lfemur -66.5911 -20.3194 6.59968
ltibia 23.5762
lfoot -5.8095 3.6052
ltoes -23.3387
1649
root -0.333891 17.5593 -1.15696 -131.066 54.2266 -177.325
lowerback 25.1972 2.59224 -5.05709
upperback 4.50372 2.30204 -2.12732
thorax -9.09326 1.39587 -0.236669
lowerneck -11.339 5.82097 1.35616
upperneck -12.5989 8.09014 -8.62431
head -1.68309 4.61642 -2.84648
rclavicle 1.98288e-014 -5.26282e-014
rhumerus -2.80709 28.6219 -58.8338
rradius 146.564
rwrist -57.439
rhand 35.3477 17.7486
rfingers 7.12502
rthumb 58.4396 2.42834
lclavicle 1.98288e-014 -5.26282e-014
lhumerus -9.92593 -36.8572 71.07
lradius 145.334
lwrist 55.9047
lhand 30.7944 21.619
lfingers 7.12502
lthumb 54.4197 40.1692
rfemur -44.1968 -1.62713 17.2806
rtibia 15.2454
rfoot -20.5152 -37.9783
rtoes 8.74578
lfemur -66.6206 -20.3385 6.61891
ltibia 23.5971
lfoot -5.79553 3.64935
ltoes -23.2408
1650
root -0.336529 17.5584 -1.15784 -131.021 54.2373 -177.317
lowerback 25.1792 2.59475 -5.02214
upperback 4.49964 2.31405 -2.12973
thorax -9.08784 1.4 -0.262448
lowerneck -10.6402 5.65178 1.13324
upperneck -14.0935 7.93774 -8.12598
head -2.33944 4.63947 -2.74259
rclavicle -3.6303e-014 -3.55825e-014
rhumerus -2.81366 28.5969 -58.7546
rradius 146.612
rwrist -57.589
rhand 35.2345 17.9131
rfingers 7.12502
rthumb 58.3413 2.50192
lclavicle -3.6303e-014 -3.55825e-014
lhumerus -9.93845 -36.8651 71.0884
lradius 145.354
lwrist 55.8857
lhand 30.8251 21.6072
lfingers 7.12502
lthumb 54.4472 40.1383
rfemur -44.2644 -1.62581 17.265
rtibia 15.259
rfoot -20.3965 -38.0303
rtoes 8.46529
lfemur -66.6957 -20.3533 6.68304
ltibia 23.6316
lfoot -5.78054 3.69522
ltoes -22.8931
1651
root -0.33923 17.5576 -1.15808 -130.99 54.2308 -177.288
lowerback 25.1948 2.59496 -4.94534
upperback 4.48601 2.33027 -2.13781
thorax -9.10899 1.40499 -0.321521
lowerneck -9.99004 5.47112 0.85287
upperneck -15.4213 7.79685 -7.5221
head -2.94958 4.65303 -2.59066
rclavicle -3.52843e-014 3.6564e-014
rhumerus -2.86528 28.697 -58.7641
rradius 146.644
rwrist -57.5566
rhand 35.0981 18.1442
rfingers 7.12502
rthumb 58.2226 2.62418
lclavicle -3.52843e-014 3.6564e-014
lhumerus -10.0307 -36.88 71.006
lradius 145.373
lwrist 55.9907
lhand 30.829 21.4613
lfingers 7.12502
lthumb 54.4507 39.99
rfemur -44.2728 -1.58321 17.2502
rtibia 15.2488
rfoot -20.4286 -38.0613
rtoes 8.52467
lfemur -66.7448 -20.3606 6.74438
ltibia 23.6686
lfoot -5.76157 3.70397
ltoes -22.8712
